<svg width="400" height="300" viewBox="0 0 400 300" fill="none" xmlns="http://www.w3.org/2000/svg">
  <defs>
    <linearGradient id="grad1" x1="0%" y1="0%" x2="100%" y2="100%">
      <stop offset="0%" style="stop-color:rgba(255,255,255,0.3);stop-opacity:1" />
      <stop offset="100%" style="stop-color:rgba(255,255,255,0.1);stop-opacity:1" />
    </linearGradient>
  </defs>
  
  <!-- Background circles -->
  <circle cx="320" cy="80" r="60" fill="rgba(255,255,255,0.1)"/>
  <circle cx="80" cy="220" r="40" fill="rgba(255,255,255,0.1)"/>
  <circle cx="350" cy="250" r="30" fill="rgba(255,255,255,0.1)"/>
  
  <!-- Main illustration -->
  <rect x="100" y="80" width="200" height="140" rx="20" fill="url(#grad1)" stroke="rgba(255,255,255,0.3)" stroke-width="2"/>
  
  <!-- Screen content -->
  <rect x="120" y="100" width="160" height="8" rx="4" fill="rgba(255,255,255,0.6)"/>
  <rect x="120" y="120" width="120" height="6" rx="3" fill="rgba(255,255,255,0.4)"/>
  <rect x="120" y="135" width="140" height="6" rx="3" fill="rgba(255,255,255,0.4)"/>
  
  <!-- Quiz elements -->
  <circle cx="140" cy="170" r="8" fill="rgba(255,255,255,0.5)"/>
  <rect x="160" y="165" width="80" height="4" rx="2" fill="rgba(255,255,255,0.5)"/>
  <rect x="160" y="175" width="60" height="4" rx="2" fill="rgba(255,255,255,0.3)"/>
  
  <circle cx="140" cy="195" r="8" fill="rgba(255,255,255,0.5)"/>
  <rect x="160" y="190" width="90" height="4" rx="2" fill="rgba(255,255,255,0.5)"/>
  <rect x="160" y="200" width="70" height="4" rx="2" fill="rgba(255,255,255,0.3)"/>
  
  <!-- Floating elements -->
  <rect x="50" y="50" width="30" height="30" rx="15" fill="rgba(255,255,255,0.2)" transform="rotate(15 65 65)"/>
  <rect x="320" y="180" width="25" height="25" rx="12" fill="rgba(255,255,255,0.2)" transform="rotate(-20 332 192)"/>
  
  <!-- Success checkmark -->
  <circle cx="200" cy="40" r="15" fill="rgba(34,197,94,0.3)"/>
  <path d="M195 40 L198 43 L205 36" stroke="rgba(255,255,255,0.8)" stroke-width="2" fill="none" stroke-linecap="round" stroke-linejoin="round"/>
</svg>