<?xml version="1.0" encoding="UTF-8"?>
<svg width="32" height="32" viewBox="0 0 32 32" fill="none" xmlns="http://www.w3.org/2000/svg">
  <rect width="32" height="32" rx="8" fill="#4F46E5"/>
  <path d="M16 7C11.0294 7 7 11.0294 7 16C7 20.9706 11.0294 25 16 25C20.9706 25 25 20.9706 25 16C25 11.0294 20.9706 7 16 7Z" fill="white"/>
  <path d="M16 10C12.6863 10 10 12.6863 10 16C10 19.3137 12.6863 22 16 22C19.3137 22 22 19.3137 22 16C22 12.6863 19.3137 10 16 10Z" fill="#4F46E5"/>
  <path d="M16 13C14.3431 13 13 14.3431 13 16C13 17.6569 14.3431 19 16 19C17.6569 19 19 17.6569 19 16C19 14.3431 17.6569 13 16 13Z" fill="white"/>
  <path d="M16 15C15.4477 15 15 15.4477 15 16C15 16.5523 15.4477 17 16 17C16.5523 17 17 16.5523 17 16C17 15.4477 16.5523 15 16 15Z" fill="#4F46E5"/>
</svg>
